<svg width="72" height="35" viewBox="0 0 72 35" fill="none" xmlns="http://www.w3.org/2000/svg">
<path d="M71.9028 8.5207L71.9028 26.2723C71.9028 30.9777 66.669 34.791 61.9635 34.791L9.42287 34.791C4.71891 34.791 0.902596 30.9777 0.902596 26.2723L0.902597 8.5207C0.902597 3.81673 4.7174 0.000423961 9.42287 0.000424191L61.9635 0.00042676C66.669 0.00344823 71.9028 3.81674 71.9028 8.5207Z" fill="black"/>
<path d="M71.9028 8.52068L71.9028 26.2723C71.9028 30.9777 66.669 34.791 61.9635 34.791L9.42286 34.791C4.71889 34.791 0.902588 30.9777 0.902588 26.2723L0.902589 8.52068C0.902589 3.81672 4.71739 0.000408702 9.42286 0.000408932L61.9635 0.000411501C66.669 0.00342916 71.9028 3.81672 71.9028 8.52068ZM50.4844 1.49342L32.8747 1.49342L32.3449 5.61316L39.6001 5.61316L50.4844 1.49342ZM55.6397 3.65519C49.7522 5.18896 42.7929 7.00503 42.7929 7.00503L42.7929 27.7894L55.6397 31.1438C55.6397 31.1423 60.1958 17.7324 55.6397 3.65519ZM39.1246 29.133L32.3434 29.133L32.8702 33.2542L50.0104 33.2542L39.1246 29.133ZM14.631 33.2542L30.2691 33.2542L29.7513 29.133L17.3785 29.133L14.631 33.2542ZM10.1867 30.9038L15.2228 27.5554L15.2228 6.76651L10.1867 3.41667L10.1867 30.9038ZM17.851 5.61316L29.7347 5.61316L30.2707 1.49342L15.102 1.49342L17.851 5.61316Z" fill="#214F6D"/>
</svg>
