<svg width="12" height="24" viewBox="0 0 12 24" fill="none" xmlns="http://www.w3.org/2000/svg">
<path d="M6.90281 22.0137L4.70947 22.8648C4.84406 23.4834 5.44985 23.8817 6.07213 23.7557C6.70031 23.6283 7.10581 23.0161 6.97884 22.3879L6.90281 22.0137Z" fill="#E65345"/>
<path d="M6.2115 18.5996L4.13086 20.0154L4.18745 20.2954L6.39703 19.5154L6.2115 18.5996Z" fill="#E65345"/>
<path d="M6.75325 21.2734L4.42139 21.4513L4.617 22.4159L6.81182 21.5643L6.75325 21.2734Z" fill="#E65345"/>
<path d="M6.48753 19.9648L4.27869 20.7448L4.33036 21.002L6.66198 20.8241L6.48753 19.9648Z" fill="#E65345"/>
<path d="M11.3419 12.2894C11.4421 12.1565 11.5132 11.9986 11.5373 11.8219C11.6124 11.272 11.2273 10.7651 10.6774 10.6898C7.63045 10.2732 7.5335 9.725 7.17205 7.18054C7.16663 7.13945 7.15384 7.10181 7.14326 7.06293C7.066 6.25931 6.43339 5.59718 5.77322 5.27681C5.77322 5.27681 5.52323 5.14001 5.23854 5.08538C4.96591 5.03346 4.64998 5.03174 4.64998 5.03174L4.64235 5.03125C3.74572 5.05709 2.69039 5.55707 2.46722 6.59813L1.26967 12.1863C1.11465 12.9114 1.42665 13.5625 1.93968 14.0211L0.472941 22.4613C0.348437 23.1756 0.827261 23.8557 1.54205 23.98C1.61833 23.9933 1.69387 23.9997 1.76842 23.9997C2.39488 23.9997 2.94998 23.5494 3.06071 22.9109L3.82594 18.5082L4.04001 19.566L6.1209 18.1497L5.319 14.1749C5.60639 13.9323 5.82588 13.6046 5.91618 13.1821L6.36966 11.0663C6.96068 11.7567 7.86764 12.2055 9.34619 12.5052L9.39368 12.6627L9.92885 12.7328C10.0691 12.8194 10.2325 12.8689 10.405 12.8755V22.2689H10.3179V22.7492C10.1729 22.859 10.0772 23.0314 10.0772 23.2271V23.6985H11.2807V23.2271C11.2807 23.0314 11.1855 22.859 11.04 22.7492V22.2689H10.9308V12.7485C11.1134 12.6435 11.2576 12.4816 11.3419 12.2894Z" fill="#E65345"/>
<path d="M6.349 5.17799C7.77887 5.17799 8.938 4.01886 8.938 2.589C8.938 1.15913 7.77887 0 6.349 0C4.91914 0 3.76001 1.15913 3.76001 2.589C3.76001 4.01886 4.91914 5.17799 6.349 5.17799Z" fill="#E65345"/>
</svg>
